<?xml version="1.0" standalone="no"?>
<!DOCTYPE svg PUBLIC "-//W3C//DTD SVG 20010904//EN"
 "http://www.w3.org/TR/2001/REC-SVG-20010904/DTD/svg10.dtd">
<svg version="1.0" xmlns="http://www.w3.org/2000/svg"
 width="700.000000pt" height="700.000000pt" viewBox="0 0 700.000000 700.000000"
 preserveAspectRatio="xMidYMid meet">
<metadata>
Created by potrace 1.11, written by Peter Selinger 2001-2013
</metadata>
<g transform="translate(0.000000,700.000000) scale(0.100000,-0.100000)"
fill="#000000" stroke="none">
<path d="M980 6984 c-378 -68 -687 -297 -856 -634 -42 -85 -90 -221 -100 -289
-3 -20 -10 -56 -15 -81 -4 -25 -7 -1134 -6 -2510 3 -2338 4 -2469 21 -2540 45
-189 110 -328 219 -470 178 -231 416 -378 712 -439 86 -18 188 -19 2565 -17
2335 2 2479 3 2550 19 304 73 546 235 723 485 79 112 139 247 179 407 l23 90
0 2495 0 2495 -23 90 c-36 144 -76 240 -145 355 -22 36 -42 67 -46 70 -3 3
-25 30 -48 60 -145 192 -388 340 -663 406 -71 17 -202 18 -2545 20 -2044 2
-2483 -1 -2545 -12z m5040 -70 c229 -41 418 -140 586 -308 168 -169 267 -357
308 -586 13 -75 15 -384 13 -2545 -1 -1353 -6 -2473 -10 -2490 -4 -16 -12 -52
-19 -80 -79 -347 -369 -662 -718 -779 -175 -58 -22 -55 -2710 -53 -1356 1
-2478 6 -2495 10 -254 65 -398 138 -553 283 -171 158 -282 360 -339 614 -4 19
-8 1142 -10 2495 -2 2676 -5 2524 53 2702 120 368 439 651 825 732 92 19 147
19 2539 20 2140 0 2456 -2 2530 -15z"/>
<path d="M1904 3438 l1 -2043 990 1 c1069 0 1175 3 1360 40 11 3 36 7 55 10
19 3 38 8 43 11 4 2 20 7 35 9 59 11 212 68 309 116 385 188 584 515 584 957
0 253 -58 475 -168 649 -37 59 -37 59 -90 121 -90 103 -260 207 -413 251 -41
12 -82 24 -90 26 -8 3 25 26 80 55 346 183 507 466 495 869 -5 146 -14 206
-47 310 -74 231 -221 395 -463 518 -64 32 -193 78 -246 87 -18 3 -36 8 -40 11
-5 3 -21 7 -36 9 -96 12 -130 18 -148 23 -11 3 -513 7 -1116 9 l-1097 3 2
-2042z m2036 1448 c14 -4 41 -9 60 -12 19 -3 38 -8 42 -11 5 -2 17 -6 29 -8
44 -9 134 -62 178 -106 88 -88 132 -220 133 -399 1 -171 -41 -298 -132 -395
-78 -82 -192 -147 -300 -171 -19 -4 -326 -9 -682 -11 l-648 -4 -1 23 c-1 30
-1 1068 0 1089 1 14 68 15 649 13 356 -1 658 -5 672 -8z m145 -1651 c313 -67
476 -270 478 -595 1 -123 -6 -181 -34 -264 -57 -169 -196 -303 -369 -357 -63
-19 -87 -24 -160 -34 -29 -4 -575 -6 -1225 -5 l-160 0 2 627 c1 346 2 633 2
638 1 7 229 10 694 9 615 -1 701 -3 772 -19z"/>
</g>
</svg>
